#!OML:ASF E:\acrobat2\Project_11_07_03\Capture day 1\Session 1\Acrobat.ASF
:FULLY-SPECIFIED
:DEGREES
131
root 10.6 18.2066 -35.3072 178.206 -1.20771 -183.237
lowerback -2.62877 0.0572573 -3.193
upperback -1.01102 0.078557 -1.90738
thorax 0.433037 0.00363582 -0.16338
lowerneck -2.47401 -1.06005 -6.5485
upperneck -3.51577 -1.3083 8.92069
head -0.57907 -0.71053 4.09007
rclavicle 3.55328e-015 -2.70347e-014
rhumerus -42.8413 -7.32199 -77.9551
rradius 25.464
rwrist -0.568155
rhand -0.728302 -44.0737
rfingers 7.12502
rthumb 24.8926 287.527
lclavicle 3.55328e-015 -2.70347e-014
lhumerus -35.5553 19.0168 70.0337
lradius 15.3587
lwrist -1.68844
lhand -8.84801 -362.623
lfingers 7.12502
lthumb 17.0927 26.6447
rfemur -3.55102 -0.911373 15.3578
rtibia 18.4976
rfoot -190.231 -185.357
rtoes -28.4634
lfemur -2.45597 -0.399108 -24.371
ltibia 11.2216
lfoot 3.78264 -15.0776
ltoes 52.3406
132
root 10.632 18.2121 -35.3989 178.86 -1.22037 -183.365
lowerback -3.30035 0.0883229 -3.36465
upperback -0.99381 0.143986 -2.1116
thorax 0.824784 0.0244979 -0.274734
lowerneck -2.92629 -1.10108 -6.43843
upperneck -4.08436 -1.35681 9.16983
head -0.677558 -0.753214 4.15857
rclavicle -3.40419e-015 2.0276e-014
rhumerus -43.3934 -6.2755 -78.6112
rradius 25.7075
rwrist -0.00852144
rhand 0.222622 -44.3289
rfingers 7.12502
rthumb 25.8036 287.401
lclavicle -3.40419e-015 2.0276e-014
lhumerus -38.8967 29.6597 59.4619
lradius 12.0091
lwrist -10.9992
lhand -9.78163 -358.893
lfingers 7.12502
lthumb 16.1939 30.4508
rfemur -2.30607 0.379086 15.5807
rtibia 15.5299
rfoot -190.997 -186.452
rtoes -27.1742
lfemur -1.60435 -0.296875 -24.3664
ltibia 8.83457
lfoot 4.08294 -14.5599
ltoes 52.103
133
root 10.6815 18.1854 -35.4904 179.369 -0.964045 -183.118
lowerback -3.32677 0.207715 -3.39566
upperback -1.30301 0.280699 -2.14158
thorax 0.518998 0.092933 -0.283086
lowerneck -3.19556 -1.14172 -5.94551
upperneck -4.45331 -1.42396 8.9401
head -0.747624 -0.802184 3.97894
rclavicle -4.96962e-016 2.94201e-014
rhumerus -44.5091 -4.7355 -79.4457
rradius 26.1696
rwrist 0.0978548
rhand 0.781471 -44.2719
rfingers 7.12502
rthumb 26.3387 287.537
lclavicle -4.96962e-016 2.94201e-014
lhumerus -42.9075 33.7169 51.7338
lradius 11.3648
lwrist -13.9705
lhand -14.994 -358.843
lfingers 7.12502
lthumb 11.1705 30.8392
rfemur -0.852915 3.01497 16.6334
rtibia 12.3979
rfoot -192.169 -188.533
rtoes -24.2834
lfemur -0.892841 0.0603621 -23.6775
ltibia 6.95502
lfoot 4.37271 -14.0943
ltoes 52.0266
134
root 10.7007 18.145 -35.5675 179.921 -1.40187 -183.769
lowerback -3.7931 0.0493809 -3.9488
upperback -1.14104 0.0984459 -2.50902
thorax 0.94788 -0.0161819 -0.358894
lowerneck -4.1024 -1.24485 -4.88163
upperneck -4.95386 -1.60241 7.99957
head -0.748616 -0.908721 3.43455
rclavicle -5.51627e-015 7.43455e-014
rhumerus -44.6602 -3.46826 -80.3171
rradius 26.471
rwrist 0.417665
rhand 1.29072 -44.136
rfingers 7.12502
rthumb 26.8261 287.747
lclavicle -5.51627e-015 7.43455e-014
lhumerus -43.7396 31.2012 50.6879
lradius 12.8486
lwrist -9.61115
lhand -12.7577 -357.415
lfingers 7.12502
lthumb 13.3268 32.1385
rfemur 0.801343 4.32712 16.4121
rtibia 9.18711
rfoot -192.486 -190.219
rtoes -25.0348
lfemur -0.514022 0.434147 -24.4361
ltibia 5.66819
lfoot 5.29003 -14.1533
ltoes 51.9568
135
root 10.7336 18.093 -35.6381 180.515 -1.65375 -184.946
lowerback -4.02562 -0.000739755 -5.14751
upperback -1.1867 0.0399177 -3.00842
thorax 1.02726 -0.0719233 -0.207906
lowerneck -3.46302 -1.24274 -5.10932
upperneck -6.81311 -1.61086 8.53959
head -1.45928 -0.992964 3.70306
rclavicle 3.32964e-015 -2.94201e-014
rhumerus -45.0774 -2.85381 -80.8438
rradius 26.7918
rwrist 1.18326
rhand 1.32876 -43.9435
rfingers 7.12502
rthumb 26.8625 287.945
lclavicle 3.32964e-015 -2.94201e-014
lhumerus -44.177 26.6368 51.3685
lradius 14.8682
lwrist -4.68331
lhand -10.8711 -356.209
lfingers 7.12502
lthumb 15.1447 33.2172
rfemur 2.16886 6.27583 15.7174
rtibia 6.42737
rfoot -192.543 -192.233
rtoes -24.2828
lfemur -0.381071 1.08947 -25.6689
ltibia 4.69214
lfoot 6.36059 -14.2572
ltoes 51.738
